<svg width="900" height="900" viewBox="0 0 900 900" fill="none" xmlns="http://www.w3.org/2000/svg">
<path fill-rule="evenodd" clip-rule="evenodd" d="M449.5 900C697.752 900 899 698.752 899 450.5C899 202.248 697.752 1 449.5 1C201.248 1 0 202.248 0 450.5C0 698.752 201.248 900 449.5 900ZM694.905 393.287C709.384 418.595 708.707 449.588 707.895 478.821C706.271 539.452 704.242 605.362 665.676 651.919C646.867 674.655 621.021 690.355 594.093 702.265C526.84 732.039 449.303 739.889 378.396 720.535C346.461 711.738 316.15 697.392 289.087 678.445C253.498 653.407 220.075 618.896 203.431 578.159C200.995 572.475 198.83 566.655 196.8 560.836C193.902 552.676 192.366 545.198 190.706 537.117C190.274 535.012 189.833 532.865 189.358 530.655C186.787 518.61 185.839 512.385 185.163 499.934C184.704 491.109 184.731 476.461 184.75 466.099C184.754 464.225 184.757 462.49 184.757 460.956C185.569 431.046 189.764 401.001 197.612 372.039C205.054 344.43 215.203 317.498 226.705 291.242C239.154 262.956 255.393 235.482 279.479 215.858C315.203 186.761 360.264 171.332 406.001 166.46C459.181 160.776 515.879 165.242 568.789 172.956C602.483 177.828 643.484 192.445 654.309 206.926C661.481 216.67 656.204 244.009 650.385 252.4C645.514 259.302 637.259 262.685 628.734 263.498C608.772 265.362 588.099 261.359 568.011 257.469C563.316 256.559 558.653 255.656 554.039 254.836C513.579 247.663 472.172 243.738 431.576 249.828C390.981 255.919 351.198 272.836 322.781 302.475C278.803 348.219 273.661 397.889 272.307 461.362C271.631 495.738 281.238 526.731 294.364 546.49C308.031 566.926 324.405 581.272 347.273 590.069C404.377 611.858 470.277 615.783 525.487 589.934C547.544 579.513 568.247 563.678 577.99 541.212C586.786 520.776 585.433 497.092 579.343 475.708C573.525 455.407 562.97 435.513 544.973 424.55C527.111 413.588 500.859 414.535 487.598 430.776C474.201 447.152 480.291 475.437 499.235 484.911C503.277 486.932 507.817 488.283 512.327 489.624C521.105 492.236 529.769 494.814 534.418 502.234C540.101 511.302 536.042 524.43 526.84 529.843C517.774 535.257 505.325 533.362 497.07 526.595C494.17 524.215 491.76 521.386 489.369 518.579C487.41 516.277 485.462 513.991 483.268 511.979C478.396 507.513 471.089 504.4 465 506.971C473.796 521.588 482.321 538.505 478.532 555.152C474.743 571.798 452.415 584.114 439.831 572.475C431.126 564.382 432.367 551.708 433.608 539.024C434.837 526.467 436.067 513.9 427.652 505.753C418.89 508.821 416.422 518.716 414.077 528.118C413.525 530.331 412.98 532.517 412.361 534.58C408.843 546.355 400.047 557.182 388.139 560.024C376.231 562.866 362.023 555.422 359.993 543.377C357.916 530.761 367.76 521.97 377.968 512.854C386.376 505.345 395.032 497.616 397.476 487.347C387.274 482.294 375.746 482.753 364.194 483.213C359.659 483.394 355.12 483.575 350.656 483.422C334.824 482.881 316.15 473.813 316.286 457.979C316.421 447.558 325.758 438.761 336.042 436.595C346.326 434.565 357.016 437.813 366.218 442.821C367.553 443.557 368.883 444.331 370.215 445.107C375.503 448.185 380.842 451.294 386.786 452.159C394.229 453.242 403.295 449.046 403.972 441.467C404.735 433.733 397.619 429.368 390.415 424.948C387.408 423.103 384.385 421.249 381.915 419.137C370.413 409.392 371.631 388.55 384.215 380.295C396.664 372.039 416.285 379.076 420.751 393.422C421.81 396.865 422.092 400.47 422.373 404.062C422.666 407.813 422.959 411.551 424.134 415.076C426.434 421.979 434.959 428.069 440.913 423.873C444.432 421.302 445.379 416.565 445.92 412.234C449.709 383.813 454.445 350.52 479.479 336.58C491.251 330.084 505.325 329.407 518.721 329.543C546.867 329.813 575.148 332.926 602.753 338.881C638.748 346.595 676.637 361.347 694.905 393.287Z" fill="#1890FF"/>
</svg>
