<svg width="900" height="900" viewBox="0 0 900 900" fill="none" xmlns="http://www.w3.org/2000/svg">
<path d="M711.153 480.927C711.965 451.694 712.642 420.701 698.163 395.393C679.895 363.453 642.006 348.701 606.012 340.987C578.407 335.032 550.125 331.919 521.979 331.649C508.583 331.513 494.51 332.19 482.737 338.686C457.703 352.626 452.967 385.919 449.178 414.34C448.637 418.671 447.69 423.408 444.172 425.979C438.218 430.175 429.693 424.085 427.392 417.182C425.092 410.28 426.174 402.566 424.009 395.528C419.544 381.182 399.923 374.145 387.473 382.4C374.889 390.656 373.671 411.498 385.173 421.243C393.563 428.416 408.312 432.611 407.23 443.573C406.553 451.152 397.487 455.348 390.044 454.265C382.602 453.182 376.107 448.581 369.476 444.927C360.275 439.919 349.584 436.671 339.3 438.701C329.016 440.867 319.679 449.664 319.544 460.085C319.409 475.919 338.082 484.987 353.915 485.528C369.747 486.07 386.526 482.416 400.735 489.453C395.322 512.19 359.463 522.476 363.252 545.483C365.281 557.528 379.49 564.972 391.398 562.13C403.306 559.288 412.101 548.461 415.619 536.686C418.867 525.859 420.085 511.649 430.91 507.859C447.825 524.235 425.768 558.476 443.089 574.581C455.674 586.22 478.001 573.904 481.79 557.258C485.579 540.611 477.054 523.694 468.258 509.077C474.347 506.506 481.655 509.619 486.526 514.085C491.397 518.551 495.051 524.37 500.328 528.701C508.583 535.468 521.032 537.363 530.098 531.949C539.3 526.536 543.359 513.408 537.676 504.34C530.64 493.107 514.401 492.972 502.493 487.017C483.549 477.543 477.46 449.258 490.856 432.882C504.117 416.641 530.369 415.694 548.231 426.656C566.228 437.619 576.783 457.513 582.602 477.814C588.691 499.197 590.044 522.882 581.248 543.318C571.506 565.784 550.802 581.619 528.745 592.04C473.535 617.889 407.636 613.964 350.532 592.175C327.663 583.378 311.29 569.032 297.622 548.596C284.497 528.837 274.889 497.844 275.566 463.468C276.919 399.994 282.061 350.325 326.039 304.581C354.456 274.942 394.239 258.025 434.835 251.934C475.43 245.844 516.837 249.769 557.297 256.942C581.654 261.273 607.365 267.904 631.993 265.603C640.518 264.791 648.772 261.408 653.643 254.506C659.462 246.115 664.739 218.776 657.568 209.032C646.742 194.551 605.741 179.934 572.047 175.062C519.138 167.348 462.439 162.882 409.26 168.566C363.522 173.438 318.461 188.867 282.737 217.964C258.651 237.588 242.413 265.062 229.964 293.348C218.462 319.603 208.313 346.536 200.87 374.145C193.022 403.107 188.827 433.152 188.015 463.062C188.015 473.077 187.88 491.619 188.421 502.04C189.098 514.491 190.045 520.716 192.616 532.761C194.916 543.453 196.405 552.656 200.058 562.942C202.088 568.761 204.253 574.581 206.689 580.265C223.333 621.002 256.756 655.513 292.345 680.551C319.409 699.498 349.72 713.844 381.655 722.641C452.561 741.995 530.098 734.145 597.351 704.37C624.279 692.461 650.125 676.761 668.934 654.025C707.5 607.468 709.53 541.558 711.153 480.927Z" fill="#1890FF"/>
</svg>
