<svg width="512" height="512" viewBox="0 0 512 512" fill="none" xmlns="http://www.w3.org/2000/svg">
<path d="M256 512C397.385 512 512 397.385 512 256C512 114.615 397.385 0 256 0C114.615 0 0 114.615 0 256C0 397.385 114.615 512 256 512Z" fill="#EDD707"/>
<path d="M351.936 367.216C344.576 408.016 312.096 449.136 255.936 449.136C199.776 449.136 167.296 408.016 160.096 367.216C158.976 361.136 163.136 355.376 169.216 354.256C175.296 353.296 181.056 357.296 182.176 363.376C187.776 394.896 212.736 426.736 255.936 426.736C299.136 426.736 324.256 394.896 329.856 363.376C330.976 357.296 336.736 353.296 342.816 354.256C348.896 355.36 353.056 361.136 351.936 367.216Z" fill="#3E4347"/>
<path d="M235.44 225.232C235.44 269.04 200.016 304.608 156.064 304.608C112.272 304.608 76.688 269.04 76.688 225.232C76.688 181.28 112.272 145.712 156.064 145.712C200.016 145.712 235.44 181.296 235.44 225.232Z" fill="white"/>
<path d="M156.064 261.28C176.034 261.28 192.224 245.091 192.224 225.12C192.224 205.149 176.034 188.96 156.064 188.96C136.093 188.96 119.904 205.149 119.904 225.12C119.904 245.091 136.093 261.28 156.064 261.28Z" fill="#3E4347"/>
<path d="M276.624 225.088C276.624 181.28 312.048 145.712 356 145.712C399.808 145.712 435.376 181.28 435.376 225.088C435.376 269.04 399.808 304.608 356 304.608C312.048 304.624 276.624 269.04 276.624 225.088Z" fill="white"/>
<path d="M485.264 213.168H445.76C439.84 168.832 401.872 134.528 356 134.528C322.048 134.528 292.448 153.344 276.96 181.088C272.752 188.624 264.8 193.008 256.176 192.96C256.128 192.96 256.08 192.96 256.016 192.96C255.936 192.96 255.872 192.96 255.792 192.96C247.2 193.024 239.28 188.624 235.104 181.12C219.616 153.36 190.016 134.528 156.064 134.528C110.208 134.528 72.3198 168.864 66.3838 213.168H26.7358V237.168H66.6558C72.2238 278.576 105.872 311.904 148.256 315.488C201.888 320.032 247.696 277.264 246.56 223.344C247.472 218.832 251.28 215.376 256.032 215.376C260.896 215.376 265.408 218.88 265.408 225.248C265.408 277.536 309.968 319.632 363.104 315.552C405.632 312.288 439.936 279.024 445.472 237.168H485.248V213.168H485.264ZM156.064 293.392C118.48 293.392 87.8878 262.8 87.8878 225.232C87.8878 187.568 118.464 156.928 156.064 156.928C193.648 156.928 224.224 187.568 224.224 225.232C224.224 262.816 193.648 293.392 156.064 293.392ZM356 293.392C318.416 293.392 287.824 262.8 287.824 225.232C287.824 187.568 318.4 156.928 356 156.928C393.584 156.928 424.16 187.568 424.16 225.232C424.16 262.816 393.584 293.392 356 293.392Z" fill="#3E4347"/>
<path d="M174.277 206.924C170.372 203.019 165.155 201.905 162.624 204.435C160.094 206.966 161.208 212.183 165.113 216.088C169.018 219.993 174.236 221.108 176.766 218.577C179.297 216.047 178.182 210.829 174.277 206.924Z" fill="white"/>
<path d="M356 261.28C375.97 261.28 392.16 245.091 392.16 225.12C392.16 205.149 375.97 188.96 356 188.96C336.029 188.96 319.84 205.149 319.84 225.12C319.84 245.091 336.029 261.28 356 261.28Z" fill="#3E4347"/>
<path d="M374.207 206.981C370.302 203.076 365.084 201.961 362.554 204.492C360.023 207.022 361.138 212.24 365.043 216.145C368.948 220.05 374.165 221.164 376.696 218.634C379.226 216.103 378.112 210.886 374.207 206.981Z" fill="white"/>
<path d="M413.776 107.456C408.656 110.448 401.52 108.992 398.256 103.392C371.584 57.7436 315.984 67.8396 315.392 67.9836C309.216 69.1836 303.344 65.1196 302.128 58.9436C301.072 52.7676 304.992 46.8796 311.168 45.6796C314.032 45.2316 383.04 32.7196 417.84 91.9356C421.008 97.3596 419.2 104.304 413.776 107.456Z" fill="#3E4347"/>
<path d="M98.2238 107.456C103.344 110.448 110.48 108.992 113.744 103.392C140.416 57.7436 196 67.8396 196.608 67.9836C202.784 69.1836 208.656 65.1196 209.872 58.9436C210.928 52.7676 207.008 46.8796 200.832 45.6796C197.968 45.2316 128.96 32.7196 94.1598 91.9356C90.9918 97.3596 92.7998 104.304 98.2238 107.456Z" fill="#3E4347"/>
</svg>
